<?xml version="1.0" standalone="no"?>
<!DOCTYPE svg PUBLIC "-//W3C//DTD SVG 1.1//EN" "http://www.w3.org/Graphics/SVG/1.1/DTD/svg11.dtd">
<svg xmlns="http://www.w3.org/2000/svg">
<metadata>Copyright (C) 2020 by original authors @ fontello.com</metadata>
<defs>
<font id="fontello" horiz-adv-x="1000" >
<font-face font-family="fontello" font-weight="400" font-stretch="normal" units-per-em="1000" ascent="850" descent="-150" />
<missing-glyph horiz-adv-x="1000" />
<glyph glyph-name="location" unicode="&#xe800;" d="M486 850c-198-7-361-160-380-357-4-39-1-77 6-114 0 0 0-4 2-12 6-27 15-54 27-78 41-97 137-261 355-437 2-2 6-2 8 0 219 176 314 340 355 437 12 24 21 51 27 78 2 8 3 12 3 12 4 24 7 50 7 75 0 224-185 404-410 396z m-123-298c15 16 31 31 48 44 25 19 53 35 83 48v-41c94-5 177-52 232-122-52 28-110 44-172 44-21 0-41-2-60-5v-57c-7 7-15 13-22 19-10 8-21 17-32 24h0c-4 3-7 5-11 8h0c-21 14-43 27-66 38z m179-50c11 1 22 2 33 2 56 0 108-19 150-51h-75c-33 22-69 39-108 49z m-84-88c-10-1-21-2-32-2-57 0-109 19-151 51h75c33-22 69-39 108-49z m179-50c-15-16-31-31-48-44-25-19-53-35-83-48v41c-94 5-177 52-232 122 52-28 110-44 173-44 20 0 40 2 59 5v57c7-7 15-13 22-19 10-8 21-17 32-24h0c4-3 7-5 11-8h0c21-14 43-27 66-38z" horiz-adv-x="1000" />

<glyph glyph-name="arrow-long" unicode="&#xe801;" d="M673 691c-13 13-35 13-51 0-12-12-12-35 0-50l254-254h-1336c-19 0-35-16-35-35s16-35 35-35h1336l-254-254c-12-13-12-38 0-51 13-13 38-13 51 0l318 317c12 13 12 35 0 51l-318 311z" horiz-adv-x="1000" />

<glyph glyph-name="employee" unicode="&#xe802;" d="M822 40c-8 0-14-7-14-15v-138c0-4-4-8-8-8h-79v289c0 8-7 14-15 14-8 0-14-6-14-14v-289h-159l46 51c5 5 7 13 6 21 0 0 0 0 0 0l-43 259 11 18c7-5 12-9 21-9 10 0 19 5 23 14v0l46 93 106-41c3-2 59-27 59-92v-99c0-9 6-15 14-15 9 0 15 6 15 15v99c0 86-74 118-77 119 0 0 0 0-1 0l-175 68v41c28 22 47 54 52 90 14 1 27 6 38 15 13 12 21 29 21 48 0 15-5 29-15 40v55c0 100-81 181-182 181-100 0-181-81-181-181v-56c-10-11-15-25-15-39 0-19 8-36 21-48 11-9 24-14 38-15 5-37 24-70 55-92v-39l-175-68c0 0-1 0-1 0-3-1-77-33-77-119v-306c0-20 17-37 37-37h140c8 0 15 7 15 15 0 8-7 14-15 14h-32v289c0 8-6 14-14 14-8 0-15-6-15-14v-289h-79c-4 0-8 4-8 8v306c0 66 56 90 59 92l106 41 46-93c4-9 13-14 23-14 9 0 14 4 21 9l11-18-43-259c0 0 0 0 0 0-1-8 1-16 6-21l46-51h-59c-8 0-14-6-14-14s6-15 14-15h392c20 0 37 17 37 37v138c0 8-6 15-15 15z m-206 296l-43-86c-1 1-24 17-52 37 12 15-2-3 53 65l42-16z m-87-91l-11-17h-36l-11 17 29 21 29-21z m-84 130v28c18-8 37-11 55-11 19 0 38 4 55 12v-29l-55-68-55 68z m221 199c0-10-4-19-12-25-4-4-10-7-16-8v65c16-2 28-16 28-32z m-307-33c-17 3-28 17-28 33 0 15 13 28 28 32v-65z m1 94c-4 0-10-1-14-3v37c0 83 69 152 152 152 84 0 153-69 153-152v-36c-5 2-9 2-13 3 0 14 0 11-47 61-8 9-22 11-33 4-51-33-113-50-171-46-12 1-24-7-27-20z m29-106v92 5c63-4 129 15 183 49 21-23 33-35 36-39 0-12 0-93 0-107 0-59-48-108-108-108-67 0-111 52-111 108z m38-279l-43 86 42 16 53-65c-27-20-49-35-52-37z m17-302l42 251h28l42-251-56-62-56 62z" horiz-adv-x="1000" />

<glyph glyph-name="002-vk-social-logotype" unicode="&#xe803;" d="M500 850c-276 0-500-224-500-500s224-500 500-500 500 224 500 500-224 500-500 500z m254-554c23-23 48-44 69-69 9-11 18-23 24-36 10-18 1-38-15-40l-103 0c-26-2-47 9-65 27-14 14-27 30-41 45-6 6-11 12-18 16-14 9-27 6-35-8-8-15-10-31-10-48-1-24-9-30-33-32-52-2-101 6-147 32-40 23-71 56-98 92-53 72-94 151-130 232-8 18-2 28 18 28 33 1 67 1 100 0 14 0 23-8 28-21 18-44 40-86 68-126 7-10 15-20 26-28 12-8 21-5 26 8 4 8 5 17 6 26 3 31 3 62-2 93-2 19-13 32-32 35-10 2-9 6-4 11 8 10 16 16 31 16l116 0c18-4 22-12 25-30l0-129c0-7 4-28 16-33 11-3 17 5 23 12 28 29 48 64 66 100 8 16 14 32 21 49 5 12 12 18 26 18l111-1c4 0 7 0 10 0 19-3 24-11 18-30-9-29-26-53-44-77-18-25-38-50-57-76-17-24-15-36 6-56z" horiz-adv-x="1000" />

<glyph glyph-name="checked2" unicode="&#xe804;" d="M12 312c-8 7-12 19-12 27s4 19 12 26l53 54c16 16 39 16 54 0l4-4 212-226c7-8 19-8 27 0l515 534h4v0c15 16 38 16 54 0l54-54c15-15 15-38 0-54l0 0-616-638c-8-8-15-12-27-12-11 0-19 4-27 12l-300 323-7 12z" horiz-adv-x="1000" />

<glyph glyph-name="facebook" unicode="&#xe805;" d="M500 850c-276 0-500-224-500-500 0-276 224-500 500-500 276 0 500 224 500 500 0 276-224 500-500 500z m124-518h-81c0-130 0-289 0-289h-120c0 0 0 158 0 289h-58v103h58v66c0 48 22 122 121 122l89 0v-100c0 0-54 0-64 0-11 0-26-5-26-28v-60h92l-11-103z" horiz-adv-x="1000" />

<glyph glyph-name="instagram-logo" unicode="&#xe806;" d="M724 850h-448c-152 0-276-124-276-276v-448c0-152 124-276 276-276h448c152 0 276 124 276 276v448c0 152-124 276-276 276z m187-724c0-103-84-187-187-187h-448c-103 0-187 84-187 187v448c0 103 84 187 187 187h448c103 0 187-84 187-187v-448z m-411 482c-142 0-258-116-258-258 0-142 116-258 258-258s258 116 258 258c0 142-116 258-258 258z m0-427c-93 0-169 76-169 169 0 93 76 169 169 169s169-76 169-169c0-93-76-169-169-169z m269 502c-18 0-34-7-46-19-13-12-20-29-20-46 0-17 7-34 20-46 12-12 28-19 46-19 17 0 33 7 46 19 12 12 19 29 19 46 0 17-7 34-19 46-13 12-29 19-46 19z" horiz-adv-x="1000" />

<glyph glyph-name="instagram-logo-1" unicode="&#xe807;" d="M500 250c55 0 100 45 100 100 0 22-7 42-19 58-18 26-48 42-81 42-33 0-63-16-81-42-12-16-19-36-19-58 0-55 45-100 100-100z m0 600c-276 0-500-224-500-500 0-276 224-500 500-500 276 0 500 224 500 500 0 276-224 500-500 500z m284-442v-232c0-61-49-110-109-110h-349c-61 0-110 49-110 110v232 116c0 61 49 110 110 110h348c61 0 110-49 110-110v-116z m-128-58c0-86-70-155-156-155-86 0-155 69-155 155 0 21 4 40 11 58h-85v-232c0-31 25-55 55-55h348c30 0 55 24 55 55v232h-85c7-18 12-37 12-58z" horiz-adv-x="1000" />

<glyph glyph-name="001-employee" unicode="&#xe808;" d="M822 40c-8 0-14-7-14-15v-138c0-4-4-8-8-8h-79v289c0 8-7 14-15 14-8 0-14-6-14-14v-289h-159l46 51c5 5 7 13 6 21 0 0 0 0 0 0l-43 259 11 18c7-5 12-9 21-9 10 0 19 5 23 14v0l46 93 106-41c3-2 59-27 59-92v-99c0-9 6-15 14-15 9 0 15 6 15 15v99c0 86-74 118-77 119 0 0 0 0-1 0l-175 68v41c28 22 47 54 52 90 14 1 27 6 38 15 13 12 21 29 21 48 0 15-5 29-15 40v55c0 100-81 181-182 181-100 0-181-81-181-181v-56c-10-11-15-25-15-39 0-19 8-36 21-48 11-9 24-14 38-15 5-37 24-70 55-92v-39l-175-68c0 0-1 0-1 0-3-1-77-33-77-119v-306c0-20 17-37 37-37h140c8 0 15 7 15 15 0 8-7 14-15 14h-32v289c0 8-6 14-14 14-8 0-15-6-15-14v-289h-79c-4 0-8 4-8 8v306c0 66 56 90 59 92l106 41 46-93c4-9 13-14 23-14 9 0 14 4 21 9l11-18-43-259c0 0 0 0 0 0-1-8 1-16 6-21l46-51h-59c-8 0-14-6-14-14s6-15 14-15h392c20 0 37 17 37 37v138c0 8-6 15-15 15z m-206 296l-43-86c-1 1-24 17-52 37 12 15-2-3 53 65l42-16z m-87-91l-11-17h-36l-11 17 29 21 29-21z m-84 130v28c18-8 37-11 55-11 19 0 38 4 55 12v-29l-55-68-55 68z m221 199c0-10-4-19-12-25-4-4-10-7-16-8v65c16-2 28-16 28-32z m-307-33c-17 3-28 17-28 33 0 15 13 28 28 32v-65z m1 94c-4 0-10-1-14-3v37c0 83 69 152 152 152 84 0 153-69 153-152v-36c-5 2-9 2-13 3 0 14 0 11-47 61-8 9-22 11-33 4-51-33-113-50-171-46-12 1-24-7-27-20z m29-106v92 5c63-4 129 15 183 49 21-23 33-35 36-39 0-12 0-93 0-107 0-59-48-108-108-108-67 0-111 52-111 108z m38-279l-43 86 42 16 53-65c-27-20-49-35-52-37z m17-302l42 251h28l42-251-56-62-56 62z" horiz-adv-x="1000" />

<glyph glyph-name="youtube" unicode="&#xe80c;" d="M961 642c-36 42-103 60-230 60h-462c-130 0-198-19-234-64-35-45-35-111-35-201v-174c0-175 42-265 269-265h462c110 0 172 16 211 53 41 39 58 103 58 212v174c0 95-3 161-39 205z m-319-316l-210-110c-4-2-10-3-15-3-5 0-11 1-16 4-10 6-16 17-16 28v219c0 11 6 21 16 27 9 6 21 7 31 1l210-109c11-5 17-16 17-28 0-12-6-23-17-29z" horiz-adv-x="1000" />

<glyph glyph-name="call-answer" unicode="&#xe810;" d="M978 60l-155 154c-31 31-82 30-113-2l-78-78c-5 3-10 6-15 9-50 27-117 64-188 135-71 71-108 138-135 188-3 5-6 10-9 15l53 52 25 25c32 32 33 83 2 114l-154 155c-31 30-82 29-114-3l-43-43 1-2c-15-18-27-40-36-63-8-22-13-43-16-64-20-169 57-324 267-533 290-290 523-268 533-267 22 2 43 8 64 16 23 9 45 21 64 36l0-1 45 43c31 32 32 83 2 114z" horiz-adv-x="1000" />

<glyph glyph-name="map" unicode="&#xe812;" d="M896 454c0 224-185 404-410 396-198-7-361-160-380-357-4-39-1-77 6-114l0 0c0 0 0-4 2-12 6-27 15-54 27-78 41-97 137-261 355-438 2-2 6-2 8 0 219 177 314 341 355 438 12 24 21 51 27 78 2 8 3 12 3 12l0 0c4 24 7 50 7 75z m-215-162c-5 10-14 18-27 22-48 12-87 39-87 39l-30-95-6-18v0l-5-15-15 45c39 54-8 54-11 54-3 0-50 0-11-54l-16-45-4 15v0l-6 18-30 95c0 0-39-27-87-39-13-4-22-12-27-22-37 42-59 97-59 158 0 132 107 240 240 240s240-108 240-240c0-61-22-116-59-158z m-93 189c2 5 3 9 4 13 13 79-26 82-26 82s-7 13-24 22c-11 7-27 12-48 10-7 0-13-1-19-3l0 0c-8-3-15-7-21-11-8-5-16-11-22-18-11-11-20-24-24-42-3-12-2-26 0-40l0 0c1-4 2-8 4-13-8 1-17-3-8-34 6-22 12-29 16-29 4-27 25-61 59-72 14-5 29-5 43 0 33 12 54 45 58 72 5 0 11 7 17 29 8 31-1 35-9 34z" horiz-adv-x="1000" />

<glyph glyph-name="close" unicode="&#xe813;" d="M558 350l442-441-58-58-442 441-442-441-58 58 442 441-442 441 58 58 442-441 442 441 58-58-442-441z" horiz-adv-x="1000" />

<glyph glyph-name="warning" unicode="&#xe814;" d="M500 165c-28 0-51-24-51-52s23-51 51-51c27 0 51 23 50 50 1 30-22 53-50 53z m476-182c32 55 32 122 0 177l-322 558c-32 56-89 89-154 89s-122-33-154-89l-322-558c-32-56-32-123 1-179 32-55 89-88 153-88h643c64 0 122 33 155 90z m-70 40c-18-31-50-49-85-49h-643c-35 0-66 18-84 48-18 30-18 67 0 98l322 558c18 30 49 49 84 49 35 0 67-19 84-49l322-558c18-30 18-66 0-97z m-419 502c-24-6-39-29-39-56 1-16 2-32 3-49 4-61 7-122 11-184 1-21 17-36 38-36 21 0 37 16 38 37 0 13 0 25 2 38 2 39 4 79 7 119 1 25 3 51 4 77 0 9-1 17-4 26-11 23-35 34-60 28z" horiz-adv-x="1000" />

<glyph glyph-name="tick" unicode="&#xe815;" d="M921 731l79-80-682-682-318 319 80 79 238-238 603 602z" horiz-adv-x="1000" />

<glyph glyph-name="path" unicode="&#xe816;" d="M876-142c-4 0-9 2-12 5-10 11-104 107-104 171 0 67 52 122 116 122 64 0 116-55 116-122 0-64-94-160-104-171-3-3-8-5-12-5z m0 265c-45 0-83-40-83-89 0-34 47-96 83-135 31 33 83 97 83 135 0 49-37 89-83 89z m0 0m33-133h-66c-9 0-17 8-17 17v66c0 9 8 17 17 17h66c9 0 17-8 17-17v-66c0-9-8-17-17-17z m-49 34h33v33h-33z m0 0m-744 529c-5 0-9 1-12 4-11 11-104 107-104 171 0 67 52 122 116 122 64 0 115-55 115-122 0-64-93-160-103-171-4-3-8-4-12-4z m0 264c-46 0-83-40-83-89 0-34 47-96 83-135 30 33 82 98 82 135 0 49-37 89-82 89z m0 0m33-132h-66c-9 0-17 7-17 16v66c0 10 8 17 17 17h66c9 0 16-7 16-17v-66c0-9-7-16-16-16z m-50 33h33v33h-33z m0 0m678-860h-570c-50 0-91 41-91 91s41 91 91 91h396c32 0 58 26 58 58 0 32-26 58-58 58h-512c-50 0-91 41-91 91 0 50 41 91 91 91h818c32 0 58 26 58 58 0 31-26 57-58 57h-603c-50 0-91 41-91 91s41 91 91 91h446c32 0 58 26 58 58 0 32-26 58-58 58h-421c-9 0-17 7-17 16s8 17 17 17h421c50 0 91-41 91-91 0-50-41-91-91-91h-446c-32 0-58-26-58-58s26-58 58-58h603c50 0 91-40 91-90 0-51-41-91-91-91h-818c-32 0-58-26-58-58 0-32 26-58 58-58h512c50 0 91-41 91-91s-41-91-91-91h-396c-32 0-58-26-58-58 0-32 26-58 58-58h570c9 0 16-7 16-16 0-9-7-17-16-17z m0 0" horiz-adv-x="1000" />

<glyph glyph-name="round-table" unicode="&#xe817;" d="M1000 703c0 95-258 147-500 147-105 0-205-9-289-26-8-1-13-9-12-17s10-13 17-12c184 37 450 35 623-13 64-17 132-47 132-79 0-97-501-165-810-80-64 17-132 47-132 80 0 31 66 61 128 78 8 2 12 11 10 18-2 8-10 13-18 10-97-27-149-64-149-106v-59c0-90 227-141 456-147v-270c0-8 7-15 15-15s14 7 14 15v270c10 0 20 0 30 0v-374c0-9-7-15-15-15s-15 6-15 15v41c0 8-6 14-14 14s-15-6-15-14v-22c-63-13-117-55-117-92 0-22 19-42 52-55 30-12 68-18 109-18s80 6 109 18c34 13 52 33 52 55 0 19-14 40-39 59-22 16-49 27-78 33v355c93 2 181 12 255 27 8 2 13 10 11 18-2 8-9 13-17 11-188-39-467-37-642 14-139 40-120 81-122 83 75-62 278-95 471-95s397 33 471 95v-6c0-10-9-44-119-76-8-3-12-11-10-18 2-8 10-13 18-10 92 27 140 63 140 104z m-368-653c0-18-51-44-132-44-80 0-132 26-132 44 0 16 35 50 89 63 5-20 22-34 43-34 21 0 38 14 43 34 55-13 89-47 89-63z m0 0" horiz-adv-x="1000" />

<glyph glyph-name="shuffle" unicode="&#xe818;" d="M177 644c-13 4-28-2-35-14l-135-203c-9-13-9-30 0-43l135-203c6-9 16-15 27-15 3 0 6 0 8 1 14 5 24 18 23 32v116c0 5 4 8 8 8h120c25 0 49 10 66 28l68 65c3 2 5 4 6 7l75-72c18-18 42-28 68-28h116c5 0 8-3 8-8v-116c0-14 10-27 24-32 14-4 29 2 37 14l135 203c9 13 9 30 0 43l-135 203c-8 12-23 18-37 14-14-5-24-18-24-32v-108c0-4-3-8-8-8h-62c-14 0-28 6-39 17l-35 32c2 1 4 2 6 4l133 134c2 1 4 2 6 2h79c22 0 40 18 40 39v95c0 21-18 39-40 39h-107c-27 0-54-11-73-30l-160-157c-2-2-4-5-6-7l-166 164c-19 19-46 30-73 30h-107c-22 0-40-18-40-39v-95c0-10 5-20 12-27 7-8 17-12 28-12h48c20 0 38-8 52-21l82-79 43-42c-3-2-5-3-6-5l-31-30c-10-9-24-13-38-12h-65c-4 0-8 4-8 8v108c0 14-9 27-23 32z m320 5l160 156c14 14 32 22 51 22h107c5 0 8-4 8-8v-95c0-4-3-7-8-8h-79c-11 0-20-4-28-11l-134-134c-1-1-3-2-5-2-2 0-4 1-6 2l-66 66c-1 2-2 4-2 6 0 2 1 4 2 6z m-252 37c-20 20-46 31-74 30h-48c-5 0-8 4-8 8v95c0 4 3 8 8 8h107c19 0 37-8 51-22l277-273 47-42c16-16 38-25 60-25h62c22 0 40 17 40 39v108c0 0 0 1 0 1 0 0 1 0 1 0 0 1 1 1 1 1 1-1 1-1 1-1l135-203c2-3 2-6 0-9l-135-203c0 0 0 0-1 0 0-1-1-1-1 0-1 0-1 0-1 0 0 1 0 1 0 1v116c0 22-18 40-40 40h-116c-17 0-34 7-46 19l-85 81-30 30-123 123z m-37-221h65c22-2 44 6 61 21l30 30c3 3 8 3 11 0l66-66c1-2 2-4 2-6 0-2-1-4-2-6l-69-65c-11-12-28-18-44-18h-120c-22 0-39-18-39-40v-116c0-1-1-1-1-1l-135 203c-2 3-2 6 0 9l135 204c0-1 1-2 1-2v-108c0-10 4-20 11-28 7-7 18-11 28-11z m0 0" horiz-adv-x="1000" />

<glyph glyph-name="box" unicode="&#xe819;" d="M868 401c-1 3-6 6-7 8l-232 126c23 54 39 107 39 146 0 93-76 169-168 169s-168-76-168-169c0-39 15-92 38-145l-232-123c-5-3-8-9-8-13v-312c0-5 3-11 8-13l353-222c5-3 11-3 15 0l356 189c5 3 8 8 8 14v338c0 1 0 4-2 7z m-45-7l-91-50-153 83c12 24 26 51 38 79l206-112z m-170-100l-114 62c8 13 17 29 26 47l152-84v-100l-56-30v92c0 5-3 10-8 13z m-291 387c0 76 62 138 138 138 76 0 138-62 138-138 0-84-96-262-138-336-45 76-138 247-138 336z m12-175l9-5c14-29 28-57 41-83l-106 57 56 31z m109-614l-322 205v277l322-183v-299z m14 324l-323 182 112 59 166-89c19-33 33-58 34-61 3-4 8-7 13-7s10 3 12 7c1 2 6 9 12 20l89-49-115-62z m342-153l-325-173v301l116 63v-92c0-6 3-11 8-14 4-3 11-3 15 0l86 47c5 3 8 8 8 14v109l92 50v-305z m-406 64l-207 121c-8 5-17 2-21-6s-2-17 6-21l207-121c8-5 17-2 21 6s2 16-6 21z m-1-77l-208 121c-7 4-16 1-21-6s-1-17 6-21l208-122c7-4 16-1 21 6s1 17-6 22z m68 727c-51 0-92-42-92-92 0-52 41-93 92-93 52 0 92 43 92 93 0 51-42 92-92 92z m0-153c-35 0-62 29-62 62 0 33 27 62 62 62s62-29 62-62c0-35-29-62-62-62z m-204-5l-137 100c-4 3-10 5-15 2-5-5-8-9-8-15v-32h-121c-9 0-15-6-15-15v-106c0-9 6-15 15-15h121v-31c0-6 3-10 8-13s11-2 15 1l137 100c4 3 6 8 6 12s-3 9-6 12z m-129-83v17c0 9-6 15-15 15h-122v1 76h122c9 0 15 6 15 15v17l95-70-95-71z m818 138h-121v32c0 6-3 10-8 13s-10 2-15-1l-136-100c-5-3-6-8-6-12s3-9 6-12l136-100c5-3 11-5 15-2s8 8 8 14v32h121c9 0 15 6 15 15v106c0 9-6 15-15 15z m-15-105h-121c-10 0-16-6-16-15v-16l-95 69 95 70v-17c0-9 6-15 16-15h121v-76z" horiz-adv-x="1000" />

<glyph glyph-name="refinement" unicode="&#xe81a;" d="M353 273l-55 56 22 22 33-33 95 98 22-22z m0 0m-164-173h250v-31h-250z m0 0m0-62h250v-32h-250z m0 0m562 52v666h-281c0 52-42 94-94 94s-94-42-94-94h-281v-906h750v19l16-16 111 110z m-187 635h156v-604l-31 32v541h-125z m-282 0h32v31c0 35 28 63 62 63s63-28 63-63v-31h31v-31h-188z m-62 0h31v-62h250v62h31v-78c0-9-7-16-15-16h-282c-8 0-15 7-15 16z m15-125h282c26 0 47 21 47 47v16h93v-479l-22 22-22-22-48 48c60 94 40 218-47 288-87 70-213 64-292-15-79-79-86-205-16-292 70-87 195-107 289-47l47-48-22-22 133-133v-19h-562v719h94v-16c0-26 21-47 46-47z m356-438l-23-22-66 67-11-8c-74-54-177-46-243 18-47 48-66 117-49 182 17 65 68 115 133 133 65 17 134-2 181-49 65-66 73-169 19-244l-8-10z m129-281h-688v844h157v-31h-125v-782h625v20l31-32z m-152 215l67 66 199-199-67-66z m0 0m-77 365c-53 52-135 61-197 19-62-41-87-121-58-190 28-69 102-108 175-93 73 14 126 78 126 153 0 41-17 81-46 111z m-22-199c-42-43-108-49-158-16-50 33-69 97-46 152s81 86 140 75c58-12 101-63 101-123 0-33-14-65-37-88z m0 0" horiz-adv-x="1000" />

<glyph glyph-name="exclamation" unicode="&#xe81c;" d="M591 100h-182c-12 0-23-4-32-13-9-9-13-20-13-32v-160c0-12 4-23 13-32 9-9 20-13 32-13h182c12 0 23 4 32 13 9 9 13 20 13 32v160c0 12-4 23-13 32-9 9-20 13-32 13z m54 737c-8 9-19 13-31 13h-228c-12 0-22-4-31-13-9-9-13-20-13-32l20-546c1-12 6-23 15-32 9-9 20-13 32-13h182c12 0 23 4 32 13 10 9 14 20 15 32l20 546c0 12-4 23-13 32z" horiz-adv-x="1000" />

<glyph glyph-name="wechat" unicode="&#xe81d;" d="M375 788c-207 0-375-140-375-313 0-99 56-188 143-245l-49-99 134 58c29-10 59-19 91-23-4 19-6 39-6 59 0 172 168 313 375 313 18 0 37-2 55-4-33 144-185 254-368 254z m-125-235c-26 0-47 21-47 47s21 47 47 47 47-21 47-47-21-47-47-47z m250 0c-26 0-47 21-47 47s21 47 47 47 47-21 47-47-21-47-47-47z m500-328c0 138-140 250-312 250s-313-112-313-250 140-250 313-250c28 0 55 4 81 10l169-73-59 117c73 46 121 116 121 196z m-406 16c-26 0-47 21-47 47s21 46 47 46 47-21 47-46-21-47-47-47z m187 0c-26 0-47 21-47 47s21 46 47 46 47-21 47-46-21-47-47-47z" horiz-adv-x="1000" />

<glyph glyph-name="telegram" unicode="&#xe81e;" d="M18 368l230-86 89-287c6-18 28-25 43-13l129 105c13 11 32 11 47 1l231-168c16-12 39-3 43 16l169 817c5 21-16 38-36 31l-946-365c-23-9-23-42 1-51z m305-40l450 277c8 5 17-6 10-12l-372-346c-13-12-21-28-24-46l-12-94c-2-12-20-14-23-1l-49 171c-5 19 3 40 20 51z" horiz-adv-x="1000" />

<glyph glyph-name="whatsapp" unicode="&#xe81f;" d="M1000 363c0-269-220-487-491-487-86 0-167 22-237 60l-272-86 89 261c-45 74-71 160-71 252 0 269 220 487 491 487 271 0 491-218 491-487z m-491 409c-228 0-413-183-413-409 0-90 30-173 79-240l-52-152 159 50c65-43 143-68 227-68 228 0 413 184 413 410 0 226-185 409-413 409z m248-521c-3 5-11 8-23 14-12 6-71 34-82 38-11 4-19 6-27-6-8-11-31-38-38-46-7-8-15-9-27-3-12 6-50 18-96 59-36 31-60 70-67 82-7 12-1 19 5 25 5 5 12 14 18 21 6 7 8 12 12 20 4 8 2 15-1 21-3 6-27 64-37 88-10 24-20 20-27 20-7 0-15 1-23 1s-21-3-32-15-42-41-42-99c0-59 43-116 49-124 6-8 83-132 205-180 123-48 123-32 145-30 22 2 71 29 81 57 10 28 10 52 7 57z" horiz-adv-x="1000" />

<glyph glyph-name="location-1" unicode="&#xe820;" d="M486 850c-198-7-361-160-380-357-4-39-1-77 6-114 0 0 0-4 2-12 6-27 15-54 27-78 41-97 137-261 355-437 2-2 6-2 8 0 219 176 314 340 355 437 12 24 21 51 27 78 2 8 3 12 3 12 4 24 7 50 7 75 0 224-185 404-410 396z m-123-298c15 16 31 31 48 44 25 19 53 35 83 48v-41c94-5 177-52 232-122-52 28-110 44-172 44-21 0-41-2-60-5v-57c-7 7-15 13-22 19-10 8-21 17-32 24h0c-4 3-7 5-11 8h0c-21 14-43 27-66 38z m179-50c11 1 22 2 33 2 56 0 108-19 150-51h-75c-33 22-69 39-108 49z m-84-88c-10-1-21-2-32-2-57 0-109 19-151 51h75c33-22 69-39 108-49z m179-50c-15-16-31-31-48-44-25-19-53-35-83-48v41c-94 5-177 52-232 122 52-28 110-44 173-44 20 0 40 2 59 5v57c7-7 15-13 22-19 10-8 21-17 32-24h0c4-3 7-5 11-8h0c21-14 43-27 66-38z" horiz-adv-x="1000" />

<glyph glyph-name="next" unicode="&#xe822;" d="M756 370l-472 472c-11 11-29 11-40 0s-11-29 0-40l452-452-452-452c-11-11-11-29 0-40 6-5 13-8 20-8 7 0 15 3 20 8l472 472c11 11 11 29 0 40z" horiz-adv-x="1000" />

<glyph glyph-name="phone-receiver" unicode="&#xe823;" d="M1000 61c2-16-3-30-15-42l-141-140c-6-7-15-13-25-18-10-5-20-8-30-10-1 0-3 0-6 0-4-1-9-1-14-1-14 0-35 3-65 7s-67 16-110 34c-44 18-93 45-148 81-55 36-114 86-176 148-49 49-90 96-123 140-32 45-58 86-78 123-20 38-35 72-44 103s-17 57-21 79-5 40-4 53c1 13 1 20 1 21 2 10 5 20 10 30s11 19 18 25l141 141c9 10 21 15 33 15 10 0 18-3 25-8s13-12 18-20l113-215c6-11 8-23 5-37-2-13-8-24-18-34l-51-52c-2-1-3-3-4-6s-2-6-2-8c3-15 9-32 19-51 9-17 22-38 39-62s43-52 76-84c31-33 60-58 84-76 25-18 46-31 62-40 17-8 30-13 38-15l14-3c1 0 3 1 6 2 4 1 6 2 7 4l61 61c12 11 27 17 44 17 12 0 22-2 29-6h1l204-121c15-9 24-21 27-35z" horiz-adv-x="1000" />

<glyph glyph-name="warning-1" unicode="&#xe825;" d="M500 165c-28 0-51-24-51-52s23-51 51-51c27 0 51 23 50 50 1 30-22 53-50 53z m476-182c32 55 32 122 0 177l-322 558c-32 56-89 89-154 89s-122-33-154-89l-322-558c-32-56-32-123 1-179 32-55 89-88 153-88h643c64 0 122 33 155 90z m-70 40c-18-31-50-49-85-49h-643c-35 0-66 18-84 48-18 30-18 67 0 98l322 558c18 30 49 49 84 49 35 0 67-19 84-49l322-558c18-30 18-66 0-97z m-419 502c-24-6-39-29-39-56 1-16 2-32 3-49 4-61 7-122 11-184 1-21 17-36 38-36 21 0 37 16 38 37 0 13 0 25 2 38 2 39 4 79 7 119 1 25 3 51 4 77 0 9-1 17-4 26-11 23-35 34-60 28z" horiz-adv-x="1000" />

<glyph glyph-name="whatsapp-2" unicode="&#xe827;" d="M500 850h0c-276 0-500-224-500-500 0-109 35-211 95-293l-62-186 192 62c79-53 173-83 275-83 276 0 500 224 500 500s-224 500-500 500z m291-706c-12-34-60-62-98-71-26-5-60-9-175 38-147 61-242 210-249 220-7 10-60 79-60 151s37 107 52 122c12 12 32 18 51 18 6 0 11-1 17-1 14-1 22-2 31-25 13-29 42-100 45-108 4-7 7-17 2-27-4-10-8-14-16-23s-14-15-21-24c-7-8-15-16-6-31 8-15 38-62 81-101 56-50 101-66 117-72 12-5 26-4 35 5 11 12 25 32 39 52 10 14 23 16 36 11 14-5 85-40 100-47 14-8 24-11 28-17 3-7 3-36-9-70z" horiz-adv-x="1000" />

<glyph glyph-name="youtube-logotype" unicode="&#xe828;" d="M580 287c-13 0-24-7-35-20v81h-34v-249h34v18c11-14 23-21 35-21 13 0 22 7 27 21 2 8 3 20 3 37v75c0 17-1 29-3 37-5 14-14 21-27 21z m-4-135c0-17-4-25-14-25-6 0-11 2-17 8v113c6 6 11 9 17 9 10 0 14-9 14-26v-79z m-128-10c-7-10-14-15-21-15-4 0-7 2-8 8 0 1 0 5 0 13v137h-34v-147c0-14 1-22 3-28 4-10 11-14 22-14 12 0 25 8 38 23v-20h34v186h-34v-143z m29 315c11 0 17 8 17 26v79c0 17-6 26-17 26-11 0-16-9-16-26v-79c0-18 5-26 16-26z m23 393c-276 0-500-224-500-500s224-500 500-500 500 224 500 500-224 500-500 500z m56-234h34v-138c0-8 0-12 0-13 1-6 3-8 8-8 7 0 14 5 22 15v144h34v-188h-34v21c-14-16-27-23-39-23-11 0-19 4-22 14-2 5-3 14-3 28v148l0 0z m-129-61c0 20 3 35 11 44 9 13 22 19 39 19 17 0 31-6 40-19 7-9 11-24 11-44v-66c0-20-4-35-11-44-9-13-23-19-40-19-17 0-30 6-39 19-8 9-11 24-11 44v66z m-91 125l27-99 25 99h39l-46-150v-102h-38v102c-3 18-11 45-23 80-8 24-16 47-24 70h40z m433-598c-7-29-31-51-60-55-69-7-139-7-209-7-70 0-140 0-209 7-29 4-53 25-60 55-10 42-10 89-10 132s0 90 10 132c7 30 31 51 60 55 69 7 139 7 209 7 70 0 140 0 209-7 29-4 54-25 60-55 10-42 10-88 10-132s0-90-10-132z m-82 205c-17 0-30-6-40-19-7-10-11-24-11-44v-65c0-20 4-35 11-44 10-13 23-19 41-19 18 0 31 7 41 20 4 6 7 13 8 20 0 4 0 11 0 22v5h-34c0-13 0-21-1-23-2-9-6-13-15-13-11 0-17 8-17 25v33h67v39c0 20-3 34-10 44-9 13-23 19-40 19z m17-73h-34v17c0 17 6 26 17 26 11 0 17-9 17-26v-17z" horiz-adv-x="1000" />

<glyph glyph-name="round-table-1" unicode="&#xe829;" d="M964 511c0 56-152 87-295 87-62 0-121-6-171-16-4-1-7-5-6-10 1-4 5-7 10-7 108 22 265 21 367-7 37-10 77-28 77-47 0-57-295-97-477-47-38 10-77 28-77 47 0 19 39 36 75 46 5 1 7 6 6 11s-6 7-11 6c-57-16-87-38-87-63v-35c0-53 133-83 268-86v-160c0-5 4-8 9-8s9 3 9 8v159c5 0 11 0 17 0v-220c0-5-4-9-9-9s-8 4-8 9v24c0 5-4 8-9 8s-9-3-9-8v-13c-37-8-69-32-69-54 0-13 11-25 31-32 18-7 40-11 64-11s47 4 65 11c19 7 30 19 30 32 0 11-8 24-23 34-13 10-29 17-46 20v209c55 2 106 7 150 16 5 1 8 6 7 10-1 5-6 8-10 7-111-23-275-22-378 8-82 24-71 48-72 49 44-36 163-56 277-56s234 20 278 56v-3c0-6-6-26-71-45-4-1-7-6-5-11 1-5 6-7 10-6 54 16 83 37 83 62v35z m-217-385c0-10-31-26-78-26-47 0-78 16-78 26 0 9 20 30 53 37 2-11 12-20 25-20 12 0 22 9 25 20 33-7 53-28 53-37z m-266 271c0 43-115 66-222 66-46 0-91-4-128-12-4-1-6-4-6-7s5-6 8-5c81 16 200 15 277-6 28-8 58-21 58-36 0-42-222-73-360-35-28 8-58 21-58 35 0 14 29 28 57 35 3 1 5 5 4 8s-4 6-8 5c-43-12-66-29-66-48v-26c0-40 101-62 203-65v-120c0-4 3-6 6-6s7 2 7 6v120c4 0 8 0 13 0v-166c0-4-3-7-7-7-3 0-6 3-6 7v18c0 3-3 6-7 6s-6-3-6-6v-10c-28-6-52-24-52-41 0-9 8-18 23-24 13-5 30-8 49-8s35 3 48 8c15 6 23 15 23 24 0 9-6 18-17 27-10 7-22 12-35 15v157c41 1 80 5 113 12 4 1 6 4 5 8 0 3-4 5-7 5-84-18-207-16-285 6-62 18-54 36-54 37 33-28 123-42 209-42s176 14 209 42v-3c0-4-4-19-53-34-3-1-5-4-4-8 1-3 4-5 8-4 40 12 62 28 62 46v26z m-163-290c0-7-23-19-59-19-36 0-59 12-59 19 0 8 15 23 40 28 2-8 10-15 19-15 9 0 17 7 19 15 24-5 40-20 40-28z m88 123c-3 1-6 0-8-3l-28-42c-2-3-2-7 0-9l28-43c1-2 4-3 6-3 1 0 1 0 2 0 3 1 5 4 5 7v24c0 1 0 2 1 2h26c5 0 10 2 14 6l14 13c0 1 1 1 1 2l16-15c4-4 9-6 14-6h25c1 0 1-1 1-1v-25c0-3 2-6 5-6 3-1 6 0 8 2l28 43c2 3 2 6 0 9l-28 43c-2 2-5 3-8 3-3-1-5-4-5-7v-23c0-1-1-1-2-1h-13c-3 0-6 1-8 3l-7 7c0 0 0 1 1 1l28 28c0 0 1 1 1 1h17c4 0 8 3 8 8v20c0 4-4 8-8 8h-22c-6 0-12-3-16-7l-33-33c-1 0-1-1-2-1l-35 34c-4 4-9 7-15 7h-22c-5 0-9-4-9-9v-19c0-3 1-5 3-6 1-2 3-3 6-3h10c4 0 8-1 10-4l18-17 9-9c-1 0-1 0-2-1l-6-6c-2-2-5-3-8-2h-14c-1 0-1 1-1 1v23c0 3-2 5-5 6z m67 1l34 33c3 3 7 5 11 5h22c1 0 2-1 2-2v-20c0-1-1-1-2-1h-17c-2 0-4-1-5-3l-28-28c-1 0-1 0-2 0 0 0 0 0-1 0l-14 14c0 1 0 1 0 1 0 1 0 1 0 1l0 0z m-53 8c-4 4-9 7-15 7h-10c-1 0-2 1-2 1v20c0 1 1 2 2 2h22c4 0 8-2 11-5l58-57 10-9c3-3 8-5 12-5h14c4 0 8 4 8 8v23c0 0 0 0 0 0 0 0 0 0 0 0 0 0 0 0 0 0 0 0 0 0 0 0l29-43c0 0 0-1 0-1l-29-43c0 0 0 0 0 0 0 0 0 0 0 0 0 0 0 0 0 0 0 0 0 0 0 0v25c0 4-4 8-9 8h-24c-4 0-7 1-10 4l-18 17-6 6-25 26-18 16z m-8-46h14c5-1 9 1 13 4l6 6c1 1 2 1 2 0l14-14c1 0 1 0 1-1 0 0-1-1-1-1l-14-14c-3-2-6-4-10-4h-25c-4 0-8-3-8-8v-24c0 0 0-1 0 0l-29 42c0 1 0 2 0 2l29 43c0-1 0-1 0-1v-22c0-3 1-5 2-6 2-1 4-2 6-2z" horiz-adv-x="1000" />

<glyph glyph-name="facebook-1" unicode="&#xf052;" d="M0 350h97v-469h193v469h130l17 161h-146v81q0 18 2 28t8 20 19 13 35 4h81v161h-129q-112 0-161-53t-49-157v-97h-97v-161z" horiz-adv-x="437.5" />

<glyph glyph-name="mail-alt" unicode="&#xf0e0;" d="M1000 454v-443q0-37-26-63t-63-27h-822q-36 0-63 27t-26 63v443q25-27 56-49 202-137 278-192 32-24 51-37t53-27 61-13h2q28 0 61 13t53 27 51 37q95 68 278 192 32 22 56 49z m0 164q0-44-27-84t-68-69q-210-146-262-181-5-4-23-17t-30-22-29-18-32-15-28-5h-2q-12 0-27 5t-32 15-30 18-30 22-23 17q-51 35-147 101t-114 80q-35 23-65 64t-31 77q0 43 23 72t66 29h822q36 0 63-26t26-63z" horiz-adv-x="1000" />

<glyph glyph-name="angle-left" unicode="&#xf104;" d="M350 546q0-7-6-12l-219-220 219-219q6-6 6-13t-6-13l-28-28q-5-5-12-5t-13 5l-260 261q-6 5-6 12t6 13l260 260q5 6 13 6t12-6l28-28q6-5 6-13z" horiz-adv-x="357.1" />

<glyph glyph-name="angle-right" unicode="&#xf105;" d="M332 314q0-7-5-12l-261-261q-5-5-12-5t-13 5l-28 28q-6 6-6 13t6 13l219 219-219 220q-6 5-6 12t6 13l28 28q5 6 13 6t12-6l261-260q5-5 5-13z" horiz-adv-x="357.1" />

<glyph glyph-name="youtube-1" unicode="&#xf167;" d="M542 156v-118q0-37-22-37-13 0-25 12v168q12 12 25 12 22 0 22-37z m189-1v-25h-51v25q0 38 25 38t26-38z m-540 122h60v52h-174v-52h59v-318h55v318z m161-318h50v276h-50v-211q-17-23-32-23-10 0-11 11-1 2-1 20v203h-50v-218q0-28 5-41 7-21 32-21 27 0 57 34v-30z m240 83v110q0 41-5 55-10 31-40 31-28 0-52-30v121h-50v-370h50v27q25-31 52-31 30 0 40 31 5 15 5 56z m188 6v7h-51q0-29-1-34-4-20-22-20-26 0-26 38v49h100v57q0 44-15 65-22 28-59 28-38 0-60-28-15-21-15-65v-96q0-44 16-65 22-29 60-29 40 0 60 30 10 15 12 30 1 5 1 33z m-339 509v117q0 39-24 39t-24-39v-117q0-39 24-39t24 39z m401-419q0-131-14-195-8-33-33-56t-57-25q-102-12-309-12t-310 12q-32 3-57 25t-32 56q-15 62-15 195 0 131 15 195 7 33 32 56t57 26q103 11 310 11t309-11q33-4 58-26t32-56q14-62 14-195z m-557 712h57l-67-223v-151h-56v151q-8 42-34 119-21 57-37 104h60l39-147z m207-186v-97q0-46-16-66-21-29-59-29-37 0-59 29-15 21-15 66v97q0 45 15 66 22 28 59 28 38 0 59-28 16-21 16-66z m187 91v-279h-51v31q-30-35-58-35-25 0-33 21-4 13-4 42v220h51v-205q0-19 0-20 2-12 12-12 15 0 32 24v213h51z" horiz-adv-x="857.1" />

<glyph glyph-name="vkontakte" unicode="&#xf189;" d="M1070 560q13-36-84-164-13-18-36-48-22-28-31-40t-17-27-7-24 8-19 18-24 32-30q2-1 2-2 79-73 107-123 2-3 4-7t4-15-1-19-14-15-33-7l-142-3q-14-2-32 3t-29 13l-11 6q-17 12-39 36t-38 43-34 33-32 8q-1 0-4-2t-10-8-12-16-9-29-4-44q0-8-2-15t-4-10l-2-3q-10-11-30-12h-64q-40-3-81 9t-74 29-57 37-40 32l-14 14q-5 5-15 17t-40 50-59 85-68 117-73 152q-4 9-4 15t2 9l2 3q9 11 32 11l153 1q7-1 13-3t9-5l3-2q9-6 13-18 11-28 26-57t23-46l9-16q16-34 31-58t27-38 23-22 19-8 15 3q1 1 3 3t7 12 7 26 5 46 0 69q-1 23-5 41t-7 26l-4 6q-14 19-47 24-8 2 3 14 8 10 21 17 29 14 133 13 46-1 75-7 12-3 19-8t12-13 5-18 2-25 0-31-2-40 0-46q0-6-1-23t0-27 2-22 6-22 13-14q4-1 9-2t15 6 21 19 29 38 38 60q33 58 60 125 2 6 5 10t6 6l3 2 2 1t8 2 11 0l160 1q22 3 36-1t17-10z" horiz-adv-x="1071.4" />

<glyph glyph-name="whatsapp-1" unicode="&#xf232;" d="M550 307q7 0 54-25t50-30q1-2 1-8 0-18-9-42-9-22-40-37t-57-15q-32 0-106 35-55 25-95 66t-82 103q-41 60-40 108v5q2 50 41 88 14 12 29 12 4 0 10-1t11-1q11 0 15-3t8-16q5-11 19-49t14-41q0-12-19-33t-20-26q0-3 3-8 19-41 57-76 31-30 84-57 7-4 13-4 8 0 30 27t29 28z m-114-296q71 0 136 28t112 74 75 112 28 136-28 136-75 112-112 75-136 28-135-28-112-75-75-112-28-136q0-113 67-205l-44-130 135 43q88-58 192-58z m0 771q86 0 164-34t134-89 90-135 33-163-33-163-90-134-134-90-164-34q-108 0-203 53l-233-75 76 226q-60 99-60 217 0 86 33 163t90 135 134 89 163 34z" horiz-adv-x="857.1" />
</font>
</defs>
</svg>
